<?xml version="1.0" encoding="UTF-8"?>
<!DOCTYPE svg PUBLIC "-//W3C//DTD SVG 1.1//EN" "http://www.w3.org/Graphics/SVG/1.1/DTD/svg11.dtd">
<!-- Creator: CorelDRAW 2021 (64-Bit) -->
<svg xmlns="http://www.w3.org/2000/svg" xml:space="preserve" width="739.991mm" height="301.17mm" version="1.1" style="shape-rendering:geometricPrecision; text-rendering:geometricPrecision; image-rendering:optimizeQuality; fill-rule:evenodd; clip-rule:evenodd"
viewBox="0 0 74005.54 30119.57"
 xmlns:xlink="http://www.w3.org/1999/xlink"
 xmlns:xodm="http://www.corel.com/coreldraw/odm/2003">
 <defs>
  <style type="text/css">
   <![CDATA[
    .fil0 {fill:white;fill-rule:nonzero}
   ]]>
  </style>
 </defs>
 <g id="Layer_x0020_1">
  <metadata id="CorelCorpID_0Corel-Layer"/>
  <path class="fil0" d="M10477.99 26000.96l-3216.19 0 -644.68 4114.75 -4000.82 0 1764.56 -11084.17 17.27 0c1303.02,183.34 2609.61,339.93 3912.69,476.18l-582.44 3654.4 3233.52 0 539.17 -3364.6c1315.18,103.08 2635.55,186.34 3945.56,251.19l-1607.29 10067 -4000.81 0 639.45 -4114.75z"/>
  <path class="fil0" d="M25724.37 20249l-266.09 1621.38 -4635.14 0 -190.08 1291.73 3971.38 0 -466.58 2838.85 -3971.45 0 -191.82 1275.84 5096.48 0 -449.31 2838.91 -9102.59 0 1609.03 -9992.74c2898.27,111.56 5770.48,144.24 8596.17,126.03z"/>
  <path class="fil0" d="M36086.77 20007.6l1405.05 10108.11 -4000.81 0 -311.12 -2073.74 -2715 0 -819.17 2073.74 -4218.58 0 4583.2 -9928.25c2063.52,-45.4 4087.25,-109.07 6076.42,-179.86zm-3257.71 5435.29l-335.25 -2472.22 -997.22 2472.22 1332.47 0z"/>
  <path class="fil0" d="M41769.14 19794.52l399.29 6126.99 2842.83 -6243.23c1429.24,-47.14 2830.87,-86.19 4192.69,-112.5l-4977.31 10549.93 -5131.04 0 -1119.87 -10176.88c1280.57,-48.39 2545.62,-97.16 3793.4,-144.3z"/>
  <path class="fil0" d="M51893.08 26862.34l-2146.4 -7305.85c1361.77,-22.45 2682.13,-29.75 3959.21,-16.96l696.57 3846.21 2082.22 -3781.74c1367.57,52.63 2677.14,136.63 3921.86,261.79l-4426.35 6597.63 -594.3 3652.28 -4006.11 0 513.29 -3253.36z"/>
  <path class="fil0" d="M72343.01 21684.91c20.58,54.81 41.78,109.51 58.62,165.57 271.89,832.94 323.66,1760.56 165.88,2782.71 -148.42,927.62 -487.04,1812.83 -1026.46,2655.63 -535.68,843.99 -1226.64,1526.28 -2063.51,2047.74 -840,522.03 -1764.18,783 -2773.8,783l-4799.28 0 1738.61 -10773.99c-13849.8,-2660.55 -38686.05,2333.47 -62457.75,-1851.8 24888.13,2505.72 49867.88,-2834.23 65818.99,252.5 2804.98,543.1 4612.81,1482.56 5342.43,3939.57l-3.74 -0.94zm-5906.8 5462.11c305.57,0 627.35,-109.95 959.1,-328.4 329.89,-219.45 623.61,-550.83 886.78,-994.28 997.15,-1703.69 988.42,-4435.16 -1320.8,-5269.04l-957.23 6591.71 432.16 0z"/>
  <path class="fil0" d="M63019.47 5309.38l-1476.08 -487.66 691.58 -2749.29 2046.05 -316.98 -1104.41 -1412.28 -4761.23 -343.17 -5485.37 128.21 -21566.43 532.81 -385.45 1038.81 6746.99 156.58 -428.61 6779.66c8872.74,-972.13 16718.71,-2390.66 25722.97,-3326.69zm-22188.67 -3151.58l2944.86 -85.68 -84.75 3270.31 -3003.67 88.31c-247.07,6.73 -433.72,-187.22 -425.11,-431.54l107.2 -2384.12c12.09,-244.32 219.45,-450.18 461.47,-457.29zm3285.35 -95.54l3122.83 -91.29c241.96,-7.24 432.1,187.21 419.94,431.22l-101.9 2384.24c-12.09,243.64 -221.25,449.87 -466.64,457.1l-3058.98 89.56 84.75 -3270.82zm4574.53 -65.35l2312.39 -0.88 -1017.91 3066.22 -1439.6 76.89 145.11 -3142.22zm6581.1 -11.91l-1008.99 2984.83 -3102.45 58.06 1009.25 -3025.42 3102.19 -17.46zm539.43 -16.59l2630.37 -11.78 -1009.62 3025.61 -2632.25 -28.5 1011.5 -2985.33zm4773.08 -5.92l-1009 2984.89 -1635.1 15.71 1010.87 -3025.11 1633.23 24.51zm338.61 -9.61l1019.6 50.82 -751.45 2824.07 -1280.88 110.19 1012.73 -2985.08z"/>
  <path class="fil0" d="M74005.54 5389.95c0,0 0,8005.56 -1960,12873.55 -16892.88,-5914.34 -37595.37,1101.98 -71012.25,-1804.22 0,0 -1171.7,-3038.33 -1019.67,-6701.27 35279.93,3103.25 48324.46,-3279.67 73991.92,-4368.06z"/>
 </g>
</svg>
